# xmcd CD database file
#
# Track frame offsets:
#	150
#	10448
#	23198
#	34846
#	47210
#	57655
#	67482
#	79648
#	96019
#	112887
#	125049
#	136367
#	144722
#	157097
#	166786
#
# Disc length: 2379 seconds
#
# Revision: 1
# Processed by: cddbd v1.5.2PL0 Copyright (c) Steve Scherf et al.
# Submitted via: CDex 1.70beta2
#
DISCID=da09490f
DTITLE=Various Artist - The Country Box [CD9)
DYEAR=1900
DGENRE=Country
TTITLE0=Johnny Russell - Jambalaya
TTITLE1=Kitty Wells - Making Believe
TTITLE2=Ned Miller - Do What You Do Do Well
TTITLE3=Stonewall Jackson - Me and You and Dog Named Boo
TTITLE4=Barbara Fairchild - Kid Stuff
TTITLE5=Ray Price - Make The World Go Away
TTITLE6=Jeanne Pruett - Satin Sheets
TTITLE7=Joe South - Walk A Mile In My Shoes
TTITLE8=Ferlin Husky - Giddyup Go
TTITLE9=Hank Thompson - Wild Side Of Life
TTITLE10=Donna Fargo - Superman
TTITLE11=Frankie Miller - Family Man
TTITLE12=Bobby Helms - Fraulein
TTITLE13=Denis Olson - Truck Drivin' Outlaw
TTITLE14=Skeeter Davis - End Of The World
EXTD=
EXTT0=
EXTT1=
EXTT2=
EXTT3=
EXTT4=
EXTT5=
EXTT6=
EXTT7=
EXTT8=
EXTT9=
EXTT10=
EXTT11=
EXTT12=
EXTT13=
EXTT14=
PLAYORDER=
